<svg width="39" height="32" viewBox="0 0 39 32" fill="none" xmlns="http://www.w3.org/2000/svg">
<path d="M3.9 32C2.8275 32 1.9097 31.6087 1.1466 30.826C0.3835 30.0433 0.0013 29.1013 0 28V4C0 2.9 0.3822 1.95867 1.1466 1.176C1.911 0.393333 2.8288 0.00133333 3.9 0H35.1C36.1725 0 37.0909 0.392 37.8553 1.176C38.6197 1.96 39.0013 2.90133 39 4V28C39 29.1 38.6184 30.042 37.8553 30.826C37.0922 31.61 36.1738 32.0013 35.1 32H3.9ZM19.5 18L3.9 8V28H35.1V8L19.5 18ZM19.5 14L35.1 4H3.9L19.5 14ZM3.9 8V4V28V8Z" fill="#1A1A1A"/>
</svg>
