<svg width="170" height="170" viewBox="0 0 170 170" fill="none" xmlns="http://www.w3.org/2000/svg">
<path d="M59.8387 100.528C57.5347 100.528 55.5187 100.128 53.7907 99.328C52.0627 98.528 50.7187 97.456 49.7587 96.112C48.8307 94.736 48.3667 93.232 48.3667 91.6C48.3667 89.488 49.0707 87.632 50.4787 86.032C51.9187 84.432 53.8387 83.184 56.2387 82.288L59.5027 83.92C58.3187 84.304 57.2147 84.832 56.1907 85.504C55.1667 86.176 54.3347 86.992 53.6947 87.952C53.0547 88.88 52.7347 89.968 52.7347 91.216C52.7347 92.336 53.0387 93.376 53.6467 94.336C54.2547 95.264 55.1027 96.016 56.1907 96.592C57.3107 97.168 58.5587 97.456 59.9347 97.456C61.3427 97.456 62.5907 97.184 63.6787 96.64C64.7667 96.064 65.6147 95.296 66.2227 94.336C66.8627 93.376 67.1827 92.336 67.1827 91.216C67.1827 89.776 66.7667 88.56 65.9348 87.568C65.1027 86.576 64.0307 85.792 62.7188 85.216C61.4387 84.64 60.0627 84.224 58.5907 83.968L55.7587 82.912V82.432C53.7427 81.664 52.2067 80.592 51.1507 79.216C50.0947 77.84 49.5667 76.336 49.5667 74.704C49.5667 72.944 50.0467 71.44 51.0067 70.192C51.9667 68.944 53.2467 67.984 54.8467 67.312C56.4787 66.608 58.2227 66.256 60.0787 66.256C62.0947 66.256 63.8707 66.624 65.4067 67.36C66.9747 68.096 68.1747 69.088 69.0067 70.336C69.8707 71.552 70.3027 72.896 70.3027 74.368C70.3027 76.192 69.7107 77.808 68.5267 79.216C67.3427 80.624 65.7267 81.776 63.6787 82.672L60.4147 81.04C61.3427 80.72 62.2387 80.288 63.1027 79.744C63.9667 79.168 64.6867 78.464 65.2628 77.632C65.8707 76.768 66.1747 75.792 66.1747 74.704C66.1747 73.776 65.9187 72.896 65.4067 72.064C64.8947 71.232 64.1747 70.56 63.2467 70.048C62.3187 69.536 61.1987 69.28 59.8867 69.28C58.6707 69.28 57.5987 69.536 56.6707 70.048C55.7427 70.56 55.0067 71.232 54.4627 72.064C53.9507 72.864 53.6947 73.728 53.6947 74.656C53.6947 76.224 54.3507 77.584 55.6627 78.736C57.0067 79.888 58.8947 80.672 61.3267 81.088L64.2067 82V82.48C65.4227 82.896 66.5747 83.488 67.6627 84.256C68.7827 84.992 69.6947 85.936 70.3987 87.088C71.1347 88.208 71.5027 89.552 71.5027 91.12C71.5027 92.88 71.0067 94.48 70.0147 95.92C69.0227 97.328 67.6467 98.448 65.8867 99.28C64.1587 100.112 62.1427 100.528 59.8387 100.528ZM86.0081 100.528C83.7041 100.528 81.6881 100.128 79.9601 99.328C78.2321 98.528 76.8881 97.456 75.9281 96.112C75.0001 94.736 74.5361 93.232 74.5361 91.6C74.5361 89.488 75.2401 87.632 76.6481 86.032C78.0881 84.432 80.0081 83.184 82.4081 82.288L85.6721 83.92C84.4881 84.304 83.3841 84.832 82.3601 85.504C81.3361 86.176 80.5041 86.992 79.8641 87.952C79.2241 88.88 78.9041 89.968 78.9041 91.216C78.9041 92.336 79.2081 93.376 79.8161 94.336C80.4241 95.264 81.2721 96.016 82.3601 96.592C83.4801 97.168 84.7281 97.456 86.1041 97.456C87.5121 97.456 88.7601 97.184 89.8481 96.64C90.9361 96.064 91.7841 95.296 92.3921 94.336C93.0321 93.376 93.3521 92.336 93.3521 91.216C93.3521 89.776 92.9361 88.56 92.1041 87.568C91.2721 86.576 90.2001 85.792 88.8881 85.216C87.6081 84.64 86.2321 84.224 84.7601 83.968L81.9281 82.912V82.432C79.9121 81.664 78.3761 80.592 77.3201 79.216C76.2641 77.84 75.7361 76.336 75.7361 74.704C75.7361 72.944 76.2161 71.44 77.1761 70.192C78.1361 68.944 79.4161 67.984 81.0161 67.312C82.6481 66.608 84.3921 66.256 86.2481 66.256C88.2641 66.256 90.0401 66.624 91.5761 67.36C93.1441 68.096 94.3441 69.088 95.1761 70.336C96.0401 71.552 96.4721 72.896 96.4721 74.368C96.4721 76.192 95.8801 77.808 94.6961 79.216C93.5121 80.624 91.8961 81.776 89.8481 82.672L86.5841 81.04C87.5121 80.72 88.4081 80.288 89.2721 79.744C90.1361 79.168 90.8561 78.464 91.4321 77.632C92.0401 76.768 92.3441 75.792 92.3441 74.704C92.3441 73.776 92.0881 72.896 91.5761 72.064C91.0641 71.232 90.3441 70.56 89.4161 70.048C88.4881 69.536 87.3681 69.28 86.0561 69.28C84.8401 69.28 83.7681 69.536 82.8401 70.048C81.9121 70.56 81.1761 71.232 80.6321 72.064C80.1201 72.864 79.8641 73.728 79.8641 74.656C79.8641 76.224 80.5201 77.584 81.8321 78.736C83.1761 79.888 85.0641 80.672 87.4961 81.088L90.3761 82V82.48C91.5921 82.896 92.7441 83.488 93.8321 84.256C94.9521 84.992 95.8641 85.936 96.5681 87.088C97.3041 88.208 97.6721 89.552 97.6721 91.12C97.6721 92.88 97.1761 94.48 96.1841 95.92C95.1921 97.328 93.8161 98.448 92.0561 99.28C90.3281 100.112 88.3121 100.528 86.0081 100.528ZM126.433 67.696H129.17L111.025 100H108.241L126.433 67.696ZM108.193 85.216C106.753 85.216 105.473 84.848 104.353 84.112C103.265 83.344 102.401 82.288 101.761 80.944C101.153 79.568 100.849 77.984 100.849 76.192C100.849 74.368 101.153 72.784 101.761 71.44C102.401 70.096 103.265 69.056 104.353 68.32C105.473 67.552 106.753 67.168 108.193 67.168C109.665 67.168 110.945 67.552 112.033 68.32C113.153 69.056 114.017 70.096 114.625 71.44C115.265 72.784 115.585 74.368 115.585 76.192C115.585 77.984 115.265 79.568 114.625 80.944C114.017 82.288 113.153 83.344 112.033 84.112C110.945 84.848 109.665 85.216 108.193 85.216ZM108.193 82.864C109.601 82.864 110.657 82.24 111.361 80.992C112.097 79.744 112.465 78.144 112.465 76.192C112.465 74.208 112.097 72.608 111.361 71.392C110.657 70.144 109.601 69.52 108.193 69.52C106.785 69.52 105.729 70.144 105.025 71.392C104.321 72.608 103.969 74.208 103.969 76.192C103.969 78.144 104.321 79.744 105.025 80.992C105.729 82.24 106.785 82.864 108.193 82.864ZM129.265 100.528C127.793 100.528 126.497 100.16 125.377 99.424C124.289 98.656 123.441 97.6 122.833 96.256C122.225 94.88 121.921 93.296 121.921 91.504C121.921 89.68 122.225 88.096 122.833 86.752C123.441 85.408 124.289 84.368 125.377 83.632C126.497 82.864 127.793 82.48 129.265 82.48C130.737 82.48 132.017 82.864 133.105 83.632C134.193 84.368 135.042 85.408 135.649 86.752C136.289 88.096 136.609 89.68 136.609 91.504C136.609 93.296 136.289 94.88 135.649 96.256C135.042 97.6 134.193 98.656 133.105 99.424C132.017 100.16 130.737 100.528 129.265 100.528ZM129.265 98.176C130.641 98.176 131.681 97.552 132.385 96.304C133.121 95.056 133.489 93.456 133.489 91.504C133.489 89.52 133.121 87.92 132.385 86.704C131.681 85.456 130.641 84.832 129.265 84.832C127.857 84.832 126.785 85.456 126.049 86.704C125.345 87.92 124.993 89.52 124.993 91.504C124.993 93.456 125.345 95.056 126.049 96.304C126.785 97.552 127.857 98.176 129.265 98.176Z" fill="#FFC03A"/>
<path d="M85 1.96745C85 0.880857 85.8811 -0.00237868 86.9674 0.0227547C106.241 0.468678 124.813 7.45601 139.616 19.8682C154.921 32.7023 165.217 50.5164 168.699 70.1848C172.18 89.8531 168.624 110.119 158.654 127.427C148.684 144.735 132.937 157.979 114.177 164.836C95.4164 171.692 74.8406 171.722 56.0598 164.922C37.2791 158.121 21.4932 144.924 11.4719 127.645C1.45074 110.367 -2.16558 90.1115 1.25754 70.4329C4.56815 51.4011 14.2585 34.0848 28.7026 21.3163C29.5167 20.5967 30.7597 20.7037 31.4603 21.5342C32.161 22.3647 32.0538 23.6043 31.2405 24.3249C17.5028 36.4964 8.28635 52.9865 5.13423 71.1072C1.86957 89.8749 5.31848 109.193 14.8758 125.671C24.4331 142.15 39.4882 154.736 57.3996 161.222C75.3109 167.708 94.9342 167.679 112.826 161.14C130.718 154.601 145.736 141.97 155.244 125.463C164.753 108.956 168.145 89.6285 164.824 70.8706C161.504 52.1128 151.684 35.1233 137.087 22.8834C122.994 11.0653 105.316 4.40392 86.9674 3.95876C85.8812 3.9324 85 3.05404 85 1.96745Z" fill="#FFC03A"/>
</svg>
