<?xml version="1.0" encoding="UTF-8"?>
<svg id="Layer_1" data-name="Layer 1" xmlns="http://www.w3.org/2000/svg" xmlns:xlink="http://www.w3.org/1999/xlink" viewBox="0 0 62 62">
  <defs>
    <style>
      .cls-1 {
        fill: #1a1a1a;
        stroke-width: 0px;
      }

      .cls-2 {
        filter: url(#drop-shadow-1);
      }

      .cls-3 {
        fill: none;
        stroke: #1a1a1a;
        stroke-width: 3px;
      }
    </style>
    <filter id="drop-shadow-1" filterUnits="userSpaceOnUse">
      <feOffset dx="-1" dy="2"/>
      <feGaussianBlur result="blur" stdDeviation="0"/>
      <feFlood flood-color="#000" flood-opacity=".25"/>
      <feComposite in2="blur" operator="in"/>
      <feComposite in="SourceGraphic"/>
    </filter>
  </defs>
  <g class="cls-2">
    <path class="cls-1" d="M13.56,36.15l2.71-2.17c.46.85,1.13,1.61,2.02,2.29.89.67,1.97,1.01,3.24,1.01,1.58,0,2.82-.52,3.74-1.55.94-1.06,1.41-2.71,1.41-4.96V13.56h3.59v17.59c0,2.07-.39,3.81-1.18,5.23-.76,1.42-1.81,2.49-3.13,3.22-1.3.72-2.76,1.08-4.39,1.08s-3.2-.43-4.65-1.28c-1.45-.85-2.57-1.94-3.36-3.25ZM19.74,16.7v-3.14h9v3.14h-9Z"/>
    <path class="cls-1" d="M28.82,45.84l2.71-2.17c.46.85,1.13,1.61,2.02,2.29.89.67,1.97,1.01,3.24,1.01,1.58,0,2.82-.52,3.74-1.55.94-1.06,1.41-2.71,1.41-4.96v-17.21h3.59v17.59c0,2.07-.39,3.81-1.18,5.23-.76,1.42-1.81,2.49-3.13,3.22-1.3.72-2.76,1.08-4.39,1.08s-3.2-.43-4.65-1.28c-1.45-.85-2.57-1.94-3.36-3.25ZM35,26.39v-3.14h9v3.14h-9Z"/>
  </g>
  <circle class="cls-3" cx="31" cy="31" r="29.5"/>
</svg>