<svg width="32" height="22" viewBox="0 0 32 22" fill="none" xmlns="http://www.w3.org/2000/svg">
<path d="M1.83333 22C0.82081 22 0 21.1792 0 20.1667V20.1667C0 19.1541 0.820811 18.3333 1.83333 18.3333H30.1667C31.1792 18.3333 32 19.1541 32 20.1667V20.1667C32 21.1792 31.1792 22 30.1667 22H1.83333ZM1.83333 12.8333C0.82081 12.8333 0 12.0125 0 11V11C0 9.98748 0.820811 9.16667 1.83333 9.16667H30.1667C31.1792 9.16667 32 9.98748 32 11V11C32 12.0125 31.1792 12.8333 30.1667 12.8333H1.83333ZM1.83333 3.66667C0.82081 3.66667 0 2.84586 0 1.83333V1.83333C0 0.820812 0.820811 0 1.83333 0H30.1667C31.1792 0 32 0.820812 32 1.83333V1.83333C32 2.84586 31.1792 3.66667 30.1667 3.66667H1.83333Z" fill="#1A1A1A"/>
</svg>
